<svg width="55" height="31" viewBox="0 0 55 31" fill="none" xmlns="http://www.w3.org/2000/svg">
<g clip-path="url(#clip0)">
<path d="M27.7723 30.4348C32.6408 30.4348 36.5875 29.6737 36.5875 28.7348C36.5875 27.796 32.6408 27.0349 27.7723 27.0349C22.9037 27.0349 18.957 27.796 18.957 28.7348C18.957 29.6737 22.9037 30.4348 27.7723 30.4348Z" fill="#D4D4F4"/>
<path d="M3.87277 12.4642C5.64165 12.4642 7.07562 11.0507 7.07562 9.30717C7.07562 7.56359 5.64165 6.15015 3.87277 6.15015C2.10389 6.15015 0.669922 7.56359 0.669922 9.30717C0.669922 11.0507 2.10389 12.4642 3.87277 12.4642Z" fill="#D8EBD9"/>
<path d="M47.9735 19.7495C47.4862 19.7495 47.0099 19.6071 46.6047 19.3403C46.1996 19.0734 45.8838 18.6941 45.6973 18.2504C45.5108 17.8066 45.462 17.3184 45.5571 16.8473C45.6522 16.3762 45.8868 15.9435 46.2314 15.6039C46.5759 15.2642 47.0149 15.0329 47.4928 14.9392C47.9708 14.8455 48.4661 14.8936 48.9163 15.0774C49.3665 15.2612 49.7513 15.5725 50.022 15.9719C50.2927 16.3712 50.4372 16.8407 50.4372 17.3211C50.4372 17.9651 50.1777 18.5828 49.7156 19.0382C49.2536 19.4937 48.6269 19.7495 47.9735 19.7495ZM47.9735 15.3783C47.5837 15.3783 47.2026 15.4922 46.8785 15.7057C46.5543 15.9192 46.3017 16.2226 46.1525 16.5776C46.0034 16.9326 45.9643 17.3232 46.0404 17.7001C46.1164 18.0769 46.3042 18.4231 46.5798 18.6948C46.8554 18.9665 47.2066 19.1515 47.589 19.2265C47.9713 19.3015 48.3676 19.263 48.7278 19.116C49.0879 18.9689 49.3957 18.7199 49.6123 18.4004C49.8289 18.0809 49.9445 17.7053 49.9445 17.3211C49.9445 16.8058 49.7368 16.3116 49.3672 15.9473C48.9976 15.583 48.4962 15.3783 47.9735 15.3783Z" fill="#8CDDB4"/>
<path d="M12.0036 6.15026C11.7113 6.15026 11.4255 6.0648 11.1824 5.90469C10.9393 5.74459 10.7498 5.51702 10.6379 5.25077C10.526 4.98453 10.4968 4.69155 10.5538 4.40891C10.6108 4.12626 10.7516 3.86663 10.9584 3.66286C11.1651 3.45908 11.4285 3.3203 11.7152 3.26408C12.002 3.20786 12.2992 3.23672 12.5693 3.347C12.8394 3.45728 13.0703 3.64404 13.2327 3.88366C13.3952 4.12327 13.4819 4.40499 13.4819 4.69317C13.4819 5.07961 13.3261 5.45023 13.0489 5.72349C12.7717 5.99674 12.3957 6.15026 12.0036 6.15026ZM12.0036 3.72178C11.8087 3.72178 11.6182 3.77875 11.4561 3.88549C11.2941 3.99223 11.1677 4.14394 11.0932 4.32144C11.0186 4.49893 10.999 4.69425 11.0371 4.88268C11.0751 5.07111 11.169 5.2442 11.3068 5.38005C11.4446 5.5159 11.6202 5.60842 11.8114 5.6459C12.0025 5.68338 12.2007 5.66414 12.3808 5.59062C12.5608 5.5171 12.7147 5.39259 12.823 5.23285C12.9313 5.0731 12.9891 4.88529 12.9891 4.69317C12.9891 4.43554 12.8853 4.18847 12.7005 4.00629C12.5157 3.82412 12.265 3.72178 12.0036 3.72178Z" fill="#8CDDB4"/>
<path d="M12.7416 16.3496C13.422 16.3496 13.9735 15.806 13.9735 15.1354C13.9735 14.4648 13.422 13.9211 12.7416 13.9211C12.0613 13.9211 11.5098 14.4648 11.5098 15.1354C11.5098 15.806 12.0613 16.3496 12.7416 16.3496Z" fill="#8CDDB4"/>
<path d="M46.2356 3.61988L47.9158 2.75049L47.5956 4.59613L48.9555 5.90265L47.0733 6.16978L46.2356 7.85029L45.393 6.16978L43.5156 5.90265L44.8756 4.59613L44.5553 2.75049L46.2356 3.61988Z" fill="#D8EBD9"/>
<path d="M52.6398 10.0551L53.714 9.49658L53.507 10.6768L54.3792 11.5122L53.1769 11.6871L52.6398 12.7605L52.1027 11.6871L50.9004 11.5122L51.7676 10.6768L51.5607 9.49658L52.6398 10.0551Z" fill="#8CDDB4"/>
<path d="M20.5 9.50635L38.232 12.3216L36.4048 23.5039C36.3424 23.8854 36.1289 24.2269 35.8111 24.4532C35.4933 24.6795 35.0973 24.7722 34.7103 24.7107L19.8971 22.3589C19.51 22.2974 19.1636 22.0869 18.934 21.7737C18.7044 21.4605 18.6104 21.0702 18.6727 20.6886L20.5 9.50635Z" fill="#FAE2D0"/>
<path d="M20.3607 10.52L20.043 12.4578L37.8191 15.2896L38.1368 13.3518L20.3607 10.52Z" fill="#FCD0B1"/>
<path d="M35.0348 25.9518L19.193 23.4408C18.6211 23.3344 18.1146 23.0102 17.7835 22.5384C17.4524 22.0665 17.3233 21.4851 17.4241 20.92L19.1339 10.4824L19.6858 10.5698L17.9612 21.0074C17.9199 21.2177 17.9214 21.434 17.9656 21.6437C18.0098 21.8534 18.0959 22.0524 18.2187 22.2291C18.3416 22.4058 18.4988 22.5566 18.6813 22.6729C18.8638 22.7892 19.0679 22.8686 19.2817 22.9065L35.1235 25.4224C35.5554 25.482 35.9936 25.3702 36.3419 25.1116C36.6902 24.8529 36.9201 24.4686 36.9812 24.043L38.6417 13.8774L39.1936 13.9649L37.533 24.1159C37.4477 24.6854 37.1369 25.1984 36.6687 25.5425C36.2004 25.8866 35.6129 26.0338 35.0348 25.9518Z" fill="#5C61DA"/>
<path d="M39.8454 7.61055L20.4788 4.53582C19.9415 4.45051 19.4357 4.81072 19.3491 5.34038L18.7246 9.16211C18.6381 9.69177 19.0035 10.1903 19.5409 10.2756L38.9075 13.3503C39.4448 13.4357 39.9506 13.0754 40.0372 12.5458L40.6617 8.72405C40.7482 8.19439 40.3828 7.69586 39.8454 7.61055Z" fill="#FAE2D0"/>
<path d="M39.8233 14.0768L18.4086 10.6818C18.227 10.6529 18.053 10.589 17.8965 10.4937C17.7401 10.3985 17.6042 10.2738 17.4966 10.1267C17.3891 9.97965 17.312 9.81314 17.2698 9.6367C17.2276 9.46026 17.2211 9.27735 17.2506 9.09843L18.0291 4.45033C18.0585 4.27137 18.1233 4.09987 18.22 3.94563C18.3166 3.79139 18.4431 3.65744 18.5923 3.55144C18.7415 3.44543 18.9104 3.36945 19.0894 3.32784C19.2684 3.28623 19.454 3.27981 19.6355 3.30894L41.0256 6.70881C41.3926 6.76728 41.7211 6.96679 41.939 7.26359C42.157 7.5604 42.2467 7.93029 42.1885 8.29218L41.4297 12.9354C41.4003 13.1144 41.3355 13.2859 41.2388 13.4401C41.1422 13.5944 41.0157 13.7283 40.8665 13.8343C40.7173 13.9403 40.5484 14.0163 40.3694 14.0579C40.1904 14.0995 40.0048 14.1059 39.8233 14.0768ZM19.5468 3.87721C19.4363 3.85702 19.3229 3.85882 19.2131 3.88249C19.1034 3.90615 18.9995 3.95122 18.9077 4.01503C18.8159 4.07884 18.738 4.1601 18.6785 4.25404C18.619 4.34798 18.5791 4.4527 18.5613 4.56204L17.8025 9.20529C17.782 9.31417 17.7838 9.42599 17.8078 9.53417C17.8319 9.64236 17.8776 9.74471 17.9423 9.83522C18.007 9.92573 18.0895 10.0026 18.1848 10.0612C18.2801 10.1198 18.3863 10.1591 18.4973 10.1767L39.8923 13.5765C40.0029 13.5981 40.1168 13.5974 40.2271 13.5743C40.3373 13.5512 40.4417 13.5063 40.5339 13.4422C40.626 13.3782 40.704 13.2964 40.7631 13.2017C40.8222 13.1071 40.8612 13.0016 40.8778 12.8917L41.6366 8.24847C41.6571 8.13958 41.6553 8.02776 41.6312 7.91958C41.6072 7.8114 41.5615 7.70904 41.4968 7.61853C41.432 7.52802 41.3496 7.45119 41.2543 7.39255C41.159 7.33391 41.0528 7.29465 40.9418 7.27707L19.5468 3.87721Z" fill="#5C61DA"/>
<path d="M29.8458 5.42164C29.2298 5.3245 28.5794 4.40654 28.1902 3.40115C27.7319 2.2112 27.6284 0.875533 28.3232 0.613257C29.018 0.350982 29.8458 1.41951 30.2942 2.60461C30.7524 3.78971 30.8559 5.13022 30.1611 5.3925C30.0604 5.42915 29.9517 5.43919 29.8458 5.42164ZM28.5696 1.13295C28.5553 1.12775 28.5395 1.12775 28.5252 1.13295C28.3675 1.19123 28.2444 1.98778 28.7125 3.20201C29.1806 4.41625 29.8113 4.93595 29.969 4.87766C30.1266 4.81938 30.2498 4.02284 29.7817 2.8086C29.3481 1.6915 28.7814 1.16695 28.5696 1.13295Z" fill="#5C61DA"/>
<path d="M30.6745 5.55759C30.5653 5.54266 30.4626 5.49714 30.3789 5.42646C29.8023 4.96504 30.3247 3.72652 31.1377 2.74056C31.9507 1.76917 33.0742 1.00663 33.6507 1.46318C34.2272 1.91973 33.6852 3.16797 32.8919 4.14908C32.2069 4.98447 31.2904 5.65473 30.6745 5.55759ZM31.5713 3.09026C30.7287 4.10051 30.6055 4.89705 30.7287 4.99904C30.8519 5.10104 31.6206 4.80962 32.4533 3.80423C33.2861 2.79884 33.4388 1.99744 33.291 1.89545C33.1432 1.79345 32.3991 2.08487 31.5664 3.09026H31.5713Z" fill="#5C61DA"/>
<path d="M27.1217 24.6989C27.0486 24.687 26.9834 24.6471 26.94 24.588C26.8966 24.5289 26.8787 24.4553 26.8901 24.3832L30.019 5.24195C30.0214 5.20335 30.0319 5.16566 30.0499 5.13131C30.0679 5.09696 30.0931 5.06672 30.1237 5.04253C30.1543 5.01834 30.1897 5.00074 30.2276 4.99087C30.2656 4.98099 30.3052 4.97906 30.3439 4.9852C30.3827 4.99133 30.4197 5.0054 30.4526 5.0265C30.4854 5.04759 30.5135 5.07524 30.5349 5.10767C30.5562 5.14009 30.5705 5.17657 30.5767 5.21476C30.5829 5.25295 30.5809 5.29199 30.5709 5.32938L27.4419 24.4706C27.4298 24.5426 27.3894 24.607 27.3294 24.6497C27.2695 24.6924 27.1948 24.7101 27.1217 24.6989Z" fill="#5C61DA"/>
<path d="M31.7583 8.3019C31.7161 8.29485 31.676 8.27852 31.6411 8.25414C31.6061 8.22976 31.5771 8.19795 31.5563 8.16105L30.0879 5.42173C30.0669 5.38965 30.0528 5.35364 30.0466 5.31595C30.0404 5.27826 30.0421 5.23971 30.0518 5.20272C30.0614 5.16573 30.0787 5.1311 30.1025 5.10101C30.1264 5.07092 30.1563 5.04602 30.1904 5.02788C30.2245 5.00973 30.262 4.99874 30.3006 4.99558C30.3392 4.99242 30.3781 4.99717 30.4147 5.00953C30.4514 5.02188 30.485 5.04158 30.5136 5.06738C30.5422 5.09318 30.565 5.12453 30.5807 5.15945L32.0589 7.89877C32.0837 7.9445 32.0949 7.99617 32.0913 8.04788C32.0878 8.09959 32.0695 8.14928 32.0387 8.19129C32.0079 8.2333 31.9658 8.26594 31.9171 8.28549C31.8684 8.30505 31.8151 8.31073 31.7633 8.3019H31.7583Z" fill="#5C61DA"/>
<path d="M27.9533 7.69947C27.8929 7.68993 27.8374 7.66089 27.7956 7.6169C27.7439 7.56511 27.7148 7.49532 27.7148 7.42262C27.7148 7.34992 27.7439 7.28014 27.7956 7.22834L30.0721 5.08157C30.1246 5.03055 30.1954 5.00195 30.2692 5.00195C30.343 5.00195 30.4138 5.03055 30.4663 5.08157C30.5184 5.13418 30.5475 5.20477 30.5475 5.27828C30.5475 5.35178 30.5184 5.42237 30.4663 5.47498L28.1947 7.62176C28.1635 7.65249 28.1254 7.67555 28.0834 7.68905C28.0415 7.70255 27.9969 7.70612 27.9533 7.69947Z" fill="#5C61DA"/>
</g>
<defs>
<clipPath id="clip0">
<rect width="53.7097" height="30" fill="white" transform="translate(0.699219 0.503906)"/>
</clipPath>
</defs>
</svg>
