<svg width="400" height="400" viewBox="0 0 400 400" fill="none" xmlns="http://www.w3.org/2000/svg">
<g clip-path="url(#clip0)">
<path d="M400.001 1.19V200H199.961L400.001 1.19Z" fill="url(#paint0_linear)"/>
<path d="M199.961 200H400.001V398.81L199.961 200Z" fill="url(#paint1_linear)"/>
<path d="M269 268.62C255.406 282.316 238.051 291.666 219.135 295.484C200.22 299.302 180.596 297.416 162.754 290.065C144.912 282.714 129.656 270.229 118.92 254.194C108.184 238.159 102.452 219.297 102.452 200C102.452 180.703 108.184 161.841 118.92 145.806C129.656 129.771 144.912 117.286 162.754 109.935C180.596 102.584 200.22 100.698 219.135 104.516C238.051 108.334 255.406 117.684 269 131.38L321.793 114.527L341.73 59.1C323.186 40.3684 301.112 25.5002 276.784 15.3557C252.456 5.21131 226.358 -0.00793646 200 9.05822e-06C89.7 9.05822e-06 0 89.72 0 200C0 310.28 89.7 400 200 400C226.365 400.013 252.47 394.797 276.805 384.652C301.14 374.507 323.221 359.636 341.77 340.9V268.62H269Z" fill="url(#paint2_linear)"/>
</g>
<defs>
<linearGradient id="paint0_linear" x1="199.961" y1="100.6" x2="400.001" y2="100.6" gradientUnits="userSpaceOnUse">
<stop offset="0.61" stop-color="#D4A2A8"/>
<stop offset="1" stop-color="#D4A2A8"/>
</linearGradient>
<linearGradient id="paint1_linear" x1="199.961" y1="299.4" x2="400.001" y2="299.4" gradientUnits="userSpaceOnUse">
<stop offset="0.61" stop-color="#946EE7"/>
<stop offset="1" stop-color="#956FE7"/>
</linearGradient>
<linearGradient id="paint2_linear" x1="170.87" y1="9.05822e-06" x2="170.87" y2="400" gradientUnits="userSpaceOnUse">
<stop offset="0.34" stop-color="#D4A2A8"/>
<stop offset="0.67" stop-color="#956FE7"/>
</linearGradient>
<clipPath id="clip0">
<rect width="400" height="400" fill="white"/>
</clipPath>
</defs>
</svg>
