<?xml version="1.0" standalone="no"?><!DOCTYPE svg PUBLIC "-//W3C//DTD SVG 1.1//EN" "http://www.w3.org/Graphics/SVG/1.1/DTD/svg11.dtd"><svg t="1603763363237" class="icon" viewBox="0 0 1024 1024" version="1.1" xmlns="http://www.w3.org/2000/svg" p-id="3204" xmlns:xlink="http://www.w3.org/1999/xlink" width="200" height="200"><defs><style type="text/css"></style></defs><path d="M918.507 443.947H104.64c-37.547 0-68.16 30.72-68.16 68.16 0 37.546 30.72 68.16 68.16 68.16h813.867c37.546 0 68.16-30.72 68.16-68.16s-30.72-68.16-68.16-68.16z m-0.32 306.88H104.32c-37.547 0-68.16 30.72-68.16 68.16 0 37.546 30.72 68.16 68.16 68.16h813.867c37.546 0 68.16-30.72 68.16-68.16 0-37.547-30.614-68.16-68.16-68.16z m1.066-610.667H105.387c-37.547 0-68.16 30.72-68.16 68.16 0 37.547 30.72 68.16 68.16 68.16h813.866c37.547 0 68.16-30.72 68.16-68.16 0-37.547-30.72-68.16-68.16-68.16z" fill="#ffffff" p-id="3205"></path></svg>