<svg width="51" height="51" viewBox="0 0 51 51" fill="none" xmlns="http://www.w3.org/2000/svg">
<path fill-rule="evenodd" clip-rule="evenodd" d="M25.3008 46.231C36.8988 46.231 46.3008 36.8289 46.3008 25.231C46.3008 13.633 36.8988 4.23096 25.3008 4.23096C13.7028 4.23096 4.30078 13.633 4.30078 25.231C4.30078 36.8289 13.7028 46.231 25.3008 46.231ZM25.3008 50.231C39.1079 50.231 50.3008 39.0381 50.3008 25.231C50.3008 11.4238 39.1079 0.230957 25.3008 0.230957C11.4937 0.230957 0.300781 11.4238 0.300781 25.231C0.300781 39.0381 11.4937 50.231 25.3008 50.231ZM25.3005 11.9717L34.4745 21.1207C35.0611 21.7057 35.0624 22.6555 34.4774 23.2421L33.0651 24.6582C32.4801 25.2448 31.5304 25.2461 30.9438 24.6611L25.3005 19.0331L19.6572 24.6611C19.0706 25.2461 18.1209 25.2448 17.5359 24.6582L16.1236 23.2421C15.5386 22.6555 15.5399 21.7057 16.1265 21.1207L25.3005 11.9717ZM34.4745 32.13L25.3005 22.9809L16.1265 32.13C15.5399 32.715 15.5386 33.6647 16.1236 34.2513L17.5359 35.6675C18.1209 36.254 19.0706 36.2553 19.6572 35.6703L25.3005 30.0424L30.9438 35.6703C31.5304 36.2553 32.4801 36.254 33.0651 35.6675L34.4774 34.2513C35.0624 33.6647 35.0611 32.715 34.4745 32.13Z" fill="#72D1A4"/>
</svg>
