<svg width="51" height="51" viewBox="0 0 51 51" fill="none" xmlns="http://www.w3.org/2000/svg">
<path fill-rule="evenodd" clip-rule="evenodd" d="M46.293 25.231C46.293 36.8289 36.8909 46.231 25.293 46.231C13.695 46.231 4.29297 36.8289 4.29297 25.231C4.29297 13.633 13.695 4.23096 25.293 4.23096C36.8909 4.23096 46.293 13.633 46.293 25.231ZM50.293 25.231C50.293 39.0381 39.1001 50.231 25.293 50.231C11.4859 50.231 0.292969 39.0381 0.292969 25.231C0.292969 11.4238 11.4859 0.230957 25.293 0.230957C39.1001 0.230957 50.293 11.4238 50.293 25.231ZM16.8684 20.3413L21.7579 25.2309L16.8683 30.1206C16.2825 30.7064 16.2826 31.6562 16.8684 32.242L18.2826 33.6562C18.8684 34.2419 19.8181 34.2419 20.4039 33.6561L25.2935 28.7664L30.1832 33.6562C30.769 34.2419 31.7187 34.2419 32.3045 33.6562L33.7187 32.2419C34.3045 31.6562 34.3045 30.7064 33.7187 30.1206L28.829 25.2309L33.7184 20.3413C34.3042 19.7555 34.3042 18.8058 33.7184 18.22L32.3042 16.8058C31.7184 16.22 30.7687 16.22 30.1829 16.8058L25.2934 21.6953L20.4039 16.8058C19.8181 16.22 18.8684 16.22 18.2826 16.8058L16.8684 18.22C16.2826 18.8058 16.2826 19.7555 16.8684 20.3413Z" fill="#F35252"/>
</svg>
