<svg width="21" height="11" viewBox="0 0 21 11" fill="none" xmlns="http://www.w3.org/2000/svg">
<path fill-rule="evenodd" clip-rule="evenodd" d="M15.8527 0.875525L20.579 5.30953C20.6563 5.3867 20.6993 5.48827 20.6993 5.59377C20.6993 5.69926 20.6563 5.80083 20.579 5.878L15.8527 10.312C15.79 10.3739 15.7085 10.4165 15.6191 10.4341C15.5297 10.4517 15.4366 10.4435 15.3524 10.4105C15.2682 10.3775 15.1968 10.3213 15.1478 10.2495C15.0989 10.1778 15.0747 10.0938 15.0785 10.0088V1.17871C15.0747 1.09377 15.0989 1.00978 15.1478 0.937986C15.1968 0.866196 15.2682 0.810042 15.3524 0.777053C15.4366 0.744064 15.5297 0.735817 15.6191 0.753417C15.7085 0.771018 15.79 0.813625 15.8527 0.875525Z" fill="#7E7E7E"/>
<path d="M2.2043 6.94067L16.4648 6.94067V4.24995H2.2043V6.94067Z" fill="#888888"/>
<path d="M2.16602 6.97983C2.9761 6.97983 3.63281 6.36901 3.63281 5.61552C3.63281 4.86204 2.9761 4.25122 2.16602 4.25122C1.35593 4.25122 0.699219 4.86204 0.699219 5.61552C0.699219 6.36901 1.35593 6.97983 2.16602 6.97983Z" fill="#888888"/>
</svg>
