<?xml version="1.0" standalone="no"?><!DOCTYPE svg PUBLIC "-//W3C//DTD SVG 1.1//EN" "http://www.w3.org/Graphics/SVG/1.1/DTD/svg11.dtd"><svg t="1603778382989" class="icon" viewBox="0 0 1024 1024" version="1.1" xmlns="http://www.w3.org/2000/svg" p-id="5822" xmlns:xlink="http://www.w3.org/1999/xlink" width="200" height="200"><defs><style type="text/css"></style></defs><path d="M511.445333 64c-217.429333 0-408.234667 158.549333-442.197333 380.074667-37.546667 244.522667 130.304 473.173333 374.826667 510.72 23.04 3.498667 45.909333 5.205333 68.48 5.205333 217.429333 0 408.234667-158.549333 442.197333-380.074667 37.546667-244.522667-130.304-473.173333-374.826667-510.72a451.584 451.584 0 0 0-68.48-5.205333m0 64c19.498667 0 39.253333 1.536 58.752 4.48a382.72 382.72 0 0 1 251.306667 152.32 382.72 382.72 0 0 1 69.973333 285.44 382.464 382.464 0 0 1-130.56 234.069333 383.829333 383.829333 0 0 1-558.421333-65.109333 382.72 382.72 0 0 1-69.973333-285.44A382.464 382.464 0 0 1 263.04 219.733333 383.829333 383.829333 0 0 1 511.445333 128" p-id="5823"></path><path d="M512 704a8.021333 8.021333 0 1 1 0-16 8.021333 8.021333 0 0 1 0 16" p-id="5824"></path><path d="M512 656a39.978667 39.978667 0 1 0 0 80 39.978667 39.978667 0 0 0 0-80" p-id="5825"></path><path d="M514.816 296.021333a128.341333 128.341333 0 0 1 126.165333 126.208 128.085333 128.085333 0 0 1-94.037333 125.269334l-1.706667 0.469333-0.170666 0.042667-0.085334 0.042666v43.946667a32 32 0 0 1-31.445333 32h-0.554667a32 32 0 0 1-32-31.488v-44.629333a64 64 0 0 1 47.36-61.653334l0.810667-0.213333a64.085333 64.085333 0 0 0 47.829333-62.890667 64.341333 64.341333 0 0 0-63.061333-63.146666 64 64 0 0 0-64.896 62.976v1.066666a32 32 0 0 1-64 0 128 128 0 0 1 127.658667-128h2.133333z" p-id="5826"></path></svg>